<?xml version="1.0" encoding="UTF-8"?>
<svg version="1.1" xmlns="http://www.w3.org/2000/svg" width="159" height="138">
<path d="M0 0 C0.89656815 -0.00992981 1.79313629 -0.01985962 2.71687317 -0.03009033 C5.67537533 -0.05924016 8.63366314 -0.07292038 11.59228516 -0.08398438 C13.65345259 -0.09549354 15.71461999 -0.10700893 17.77578735 -0.11853027 C22.09483841 -0.13952262 26.41381529 -0.15122646 30.73291016 -0.15820312 C36.2601731 -0.16917738 41.78645183 -0.21725175 47.31340599 -0.27414703 C51.5702906 -0.31143895 55.82693879 -0.32181291 60.08397293 -0.32487488 C62.1213177 -0.33091862 64.15865877 -0.34694465 66.19584274 -0.37324524 C69.04928821 -0.40745959 71.90033742 -0.40358786 74.75390625 -0.390625 C75.59050278 -0.40905457 76.4270993 -0.42748413 77.28904724 -0.44647217 C82.84483943 -0.36763273 85.67533366 1.0107956 89.70272255 4.83951569 C92.06860538 7.53048305 92.12606757 9.40651927 92.10400391 12.89257812 C92.09916992 14.23642578 92.09916992 14.23642578 92.09423828 15.60742188 C92.08166992 17.01314453 92.08166992 17.01314453 92.06884766 18.44726562 C92.06433594 19.39214844 92.05982422 20.33703125 92.05517578 21.31054688 C92.04337122 23.6478495 92.02690524 25.98502624 92.00634766 28.32226562 C90.02634766 28.32226562 88.04634766 28.32226562 86.00634766 28.32226562 C85.95736328 27.21367188 85.90837891 26.10507812 85.85791016 24.96289062 C85.78285551 23.49932498 85.70730884 22.0357845 85.63134766 20.57226562 C85.60041016 19.84265625 85.56947266 19.11304687 85.53759766 18.36132812 C85.30650023 13.01142625 85.30650023 13.01142625 83.00634766 8.32226562 C79.25033859 7.0702626 75.74729076 7.1747492 71.8347168 7.17700195 C71.00189682 7.17364334 70.16907684 7.17028473 69.3110199 7.16682434 C66.55449945 7.15731549 63.79803974 7.15537132 61.04150391 7.15429688 C59.12723261 7.15108445 57.21296157 7.14772039 55.2986908 7.14421082 C51.284652 7.13821986 47.27063474 7.1363709 43.2565918 7.13696289 C38.11049086 7.13706456 32.96452776 7.12340744 27.81845951 7.10619068 C23.86453109 7.09507852 19.91063609 7.09304344 15.95669365 7.09357262 C14.05926475 7.09239151 12.16183502 7.08796241 10.26442146 7.08024025 C7.6119734 7.07045541 4.95982583 7.07331235 2.30737305 7.0793457 C1.12976913 7.07091644 1.12976913 7.07091644 -0.07162476 7.06231689 C-5.35027794 7.08171241 -5.35027794 7.08171241 -9.99365234 9.32226562 C-11.25777323 11.85050739 -11.12747457 13.61297933 -11.13891602 16.44287109 C-11.14529587 17.51092987 -11.15167572 18.57898865 -11.1582489 19.67941284 C-11.15936172 20.83772614 -11.16047455 21.99603943 -11.16162109 23.18945312 C-11.16494949 24.37572296 -11.16827789 25.5619928 -11.17170715 26.78421021 C-11.17677772 29.29770519 -11.17911544 31.81120693 -11.17895508 34.32470703 C-11.18113929 38.17426642 -11.1992877 42.02353832 -11.21826172 45.87304688 C-11.22119603 48.31184798 -11.22318057 50.75065044 -11.22412109 53.18945312 C-11.23130661 54.34371796 -11.23849213 55.49798279 -11.24589539 56.68722534 C-11.24281876 57.76158844 -11.23974213 58.83595154 -11.23657227 59.94287109 C-11.23870979 61.35945511 -11.23870979 61.35945511 -11.2408905 62.80465698 C-10.9773665 65.48810325 -10.505815 67.09554121 -8.99365234 69.32226562 C-6.10225004 70.28606639 -4.16711312 70.47338587 -1.1550293 70.52758789 C-0.17423904 70.54753311 0.80655121 70.56747833 1.81706238 70.58802795 C2.87339371 70.60474045 3.92972504 70.62145294 5.01806641 70.63867188 C6.64310844 70.66984352 6.64310844 70.66984352 8.30097961 70.7016449 C11.76520382 70.76708359 15.22950446 70.82599916 18.69384766 70.88476562 C21.0408608 70.92795623 23.38786619 70.9715707 25.73486328 71.015625 C31.4919437 71.12275919 37.24910032 71.22453627 43.00634766 71.32226562 C43.00634766 73.30226563 43.00634766 75.28226562 43.00634766 77.32226562 C35.58677574 77.47471666 28.1676094 77.57960795 20.74682617 77.65185547 C18.22388617 77.68198109 15.7010505 77.72289031 13.1784668 77.77490234 C9.54661286 77.84789724 5.91614645 77.88176611 2.28369141 77.90820312 C0.59891945 77.95465469 0.59891945 77.95465469 -1.11988831 78.00204468 C-6.42627685 78.00431212 -10.02389099 77.89696982 -14.19848633 74.41064453 C-17.70337051 70.89856442 -18.12392493 68.6368602 -18.1706543 63.69848633 C-18.18348953 62.51998611 -18.19632477 61.3414859 -18.20954895 60.12727356 C-18.21693588 58.84712875 -18.22432281 57.56698395 -18.23193359 56.24804688 C-18.24000534 54.93571579 -18.24807709 53.6233847 -18.25639343 52.27128601 C-18.27142442 49.48790617 -18.28125912 46.70455188 -18.28881836 43.92114258 C-18.29985445 40.3680261 -18.33421922 36.81554081 -18.37399006 33.26264668 C-18.40654562 29.8619728 -18.41094361 26.4613645 -18.41943359 23.06054688 C-18.43694168 21.79052322 -18.45444977 20.52049957 -18.4724884 19.21199036 C-18.45591635 12.44702539 -18.39481737 7.64850731 -13.99365234 2.32226562 C-9.48952119 -0.17304913 -5.01090955 0.01332665 0 0 Z " fill="#305091" transform="translate(40.99365234375,30.677734375)"/>
<path d="M0 0 C3.51993865 4.57592025 3.27330548 8.96479089 2.9609375 14.52734375 C2.92033203 15.91083008 2.92033203 15.91083008 2.87890625 17.32226562 C2.80869869 19.58060895 2.71046644 21.83395412 2.5859375 24.08984375 C0.6059375 24.08984375 -1.3740625 24.08984375 -3.4140625 24.08984375 C-3.46304688 22.98125 -3.51203125 21.87265625 -3.5625 20.73046875 C-3.63755465 19.2669031 -3.71310131 17.80336263 -3.7890625 16.33984375 C-3.82 15.61023438 -3.8509375 14.880625 -3.8828125 14.12890625 C-4.11390993 8.77900438 -4.11390993 8.77900438 -6.4140625 4.08984375 C-10.15487808 2.84290522 -13.65884294 2.9131402 -17.55737305 2.88452148 C-18.38686462 2.87462189 -19.2163562 2.86472229 -20.07098389 2.85452271 C-22.81422059 2.8229217 -25.55747461 2.79815577 -28.30078125 2.7734375 C-30.20221915 2.75286677 -32.10365249 2.73187026 -34.00508118 2.71046448 C-39.01095894 2.65525614 -44.01687788 2.60584137 -49.02282715 2.55761719 C-54.13048978 2.50739315 -59.23809257 2.45171179 -64.34570312 2.39648438 C-74.36843846 2.28891793 -84.39122575 2.18746956 -94.4140625 2.08984375 C-94.4140625 1.75984375 -94.4140625 1.42984375 -94.4140625 1.08984375 C-79.8940625 0.75984375 -65.3740625 0.42984375 -50.4140625 0.08984375 C-50.0840625 -0.57015625 -49.7540625 -1.23015625 -49.4140625 -1.91015625 C-47.41113281 -2.30224609 -47.41113281 -2.30224609 -44.7421875 -2.49609375 C-43.74509766 -2.56924805 -42.74800781 -2.64240234 -41.72070312 -2.71777344 C-35.87019178 -3.05816054 -30.02060124 -3.323324 -24.1640625 -3.53515625 C-22.936875 -3.58671875 -21.7096875 -3.63828125 -20.4453125 -3.69140625 C-4.35994897 -4.28329192 -4.35994897 -4.28329192 0 0 Z " fill="#539FCF" transform="translate(130.4140625,34.91015625)"/>
<path d="M0 0 C4.45954901 1.48651634 7.49788062 2.69872837 11.3984375 5.0390625 C12.37167969 5.61914062 13.34492187 6.19921875 14.34765625 6.796875 C15.84619141 7.70179687 15.84619141 7.70179687 17.375 8.625 C18.39722656 9.23601563 19.41945313 9.84703125 20.47265625 10.4765625 C22.98492073 11.97922537 25.49385721 13.48715715 28 15 C25.56091741 17.71455306 22.91275758 19.34563164 19.74609375 21.13671875 C18.72708984 21.71357422 17.70808594 22.29042969 16.65820312 22.88476562 C15.59537109 23.47966797 14.53253906 24.07457031 13.4375 24.6875 C12.37080078 25.29400391 11.30410156 25.90050781 10.20507812 26.52539062 C2.25748735 31 2.25748735 31 0 31 C0 20.77 0 10.54 0 0 Z M6 10 C6 13.63 6 17.26 6 21 C8.97 19.35 11.94 17.7 15 16 C12.07175348 13.07175348 9.7020007 11.72760033 6 10 Z " fill="#2C85C1" transform="translate(67,54)"/>
<path d="M0 0 C1.04449911 3.13349732 0.93423645 3.98968256 0 7 C-1.03447266 7.12955078 -1.03447266 7.12955078 -2.08984375 7.26171875 C-11.93863588 8.73430907 -19.1292336 11.92849492 -25.49609375 19.7578125 C-29.43472331 25.62995112 -31.39170437 32.00460027 -32 39 C-34.31 39 -36.62 39 -39 39 C-38.74638418 28.57869558 -35.57317399 18.39705366 -28 11 C-20.14651455 4.02695014 -10.62001571 -0.30342902 0 0 Z " fill="#3C9ED1" transform="translate(133,69)"/>
<path d="M0 0 C0.433125 0.639375 0.86625 1.27875 1.3125 1.9375 C2.91239177 4.26746003 2.91239177 4.26746003 6 5 C7.61024513 5.11471012 9.22455855 5.1762774 10.83862305 5.20532227 C11.8194133 5.22526749 12.80020355 5.24521271 13.81071472 5.26576233 C14.86704605 5.28247482 15.92337738 5.29918732 17.01171875 5.31640625 C18.09508011 5.33718735 19.17844147 5.35796844 20.29463196 5.37937927 C23.75885616 5.44481797 27.2231568 5.50373353 30.6875 5.5625 C33.03451315 5.60569061 35.38151853 5.64930507 37.72851562 5.69335938 C43.48559604 5.80049357 49.24275267 5.90227064 55 6 C55 7.98 55 9.96 55 12 C47.58042809 12.15245104 40.16126174 12.25734233 32.74047852 12.32958984 C30.21753852 12.35971547 27.69470284 12.40062468 25.17211914 12.45263672 C21.5402652 12.52563162 17.90979879 12.55950049 14.27734375 12.5859375 C12.59257179 12.63238907 12.59257179 12.63238907 10.87376404 12.67977905 C5.4711258 12.68208762 1.94847794 12.55296261 -2.26733398 8.96337891 C-3.20633828 8.00227327 -4.12907958 7.02320611 -5 6 C-4.67 5.34 -4.34 4.68 -4 4 C-3.01 4 -2.02 4 -1 4 C-0.67 2.68 -0.34 1.36 0 0 Z " fill="#295093" transform="translate(29,96)"/>
<path d="M0 0 C1.32 0 2.64 0 4 0 C5.26593439 2.53186878 5.15918194 4.34974791 5.20532227 7.18408203 C5.22526749 8.26505157 5.24521271 9.34602112 5.26576233 10.45974731 C5.28247482 11.63060883 5.29918732 12.80147034 5.31640625 14.0078125 C5.3475779 15.8014473 5.3475779 15.8014473 5.37937927 17.63131714 C5.44492289 21.46248464 5.50378218 25.29372238 5.5625 29.125 C5.60568063 31.71745527 5.64929477 34.30990336 5.69335938 36.90234375 C5.80060919 43.26815427 5.9023666 49.63403513 6 56 C2.25 57.125 2.25 57.125 0 56 C0 37.52 0 19.04 0 0 Z " fill="#2F3B82" transform="translate(23,44)"/>
<path d="M0 0 C-0.33 1.98 -0.66 3.96 -1 6 C-1.59167969 6.14695312 -2.18335938 6.29390625 -2.79296875 6.4453125 C-8.7555481 8.13779016 -11.65465191 9.7285424 -15 15 C-15.89306246 17.3407637 -16.45897603 19.54080012 -17 22 C-18.98 22 -20.96 22 -23 22 C-22.69562035 15.15145785 -21.64394314 10.60389981 -16.578125 5.59375 C-11.16418572 0.7937626 -7.14918956 -0.28036037 0 0 Z " fill="#48AFDB" transform="translate(134,86)"/>
<path d="M0 0 C8.28 2.76 8.28 2.76 11 5 C11.3125 8.1875 11.3125 8.1875 11 11 C9.35 10.67 7.7 10.34 6 10 C5.67 13.96 5.34 17.92 5 22 C5.66 22 6.32 22 7 22 C7 22.99 7 23.98 7 25 C6.34 25 5.68 25 5 25 C5 25.99 5 26.98 5 28 C4.01 28 3.02 28 2 28 C2 28.99 2 29.98 2 31 C1.34 31 0.68 31 0 31 C0 20.77 0 10.54 0 0 Z " fill="#2967A2" transform="translate(67,54)"/>
<path d="M0 0 C19.14 0 38.28 0 58 0 C58 0.33 58 0.66 58 1 C57.20940186 1.02505615 56.41880371 1.0501123 55.60424805 1.07592773 C51.96521698 1.19314435 48.32636675 1.31529245 44.6875 1.4375 C43.44419922 1.47681641 42.20089844 1.51613281 40.91992188 1.55664062 C33.57747079 1.80717045 26.30949146 2.25845739 19 3 C23.95 3.33 28.9 3.66 34 4 C34 4.33 34 4.66 34 5 C-0.90205657 5.20638953 -0.90205657 5.20638953 -14 4 C-14 3.34 -14 2.68 -14 2 C-9.38 2 -4.76 2 0 2 C0 1.34 0 0.68 0 0 Z " fill="#256EAB" transform="translate(62,31)"/>
<path d="M0 0 C1.04449911 3.13349732 0.93423645 3.98968256 0 7 C-0.68964844 7.08636719 -1.37929687 7.17273438 -2.08984375 7.26171875 C-11.8656289 8.72339307 -18.70275658 12.4511918 -26 19 C-26 18.01 -26 17.02 -26 16 C-25.34 16 -24.68 16 -24 16 C-24 15.01 -24 14.02 -24 13 C-23.01 13 -22.02 13 -21 13 C-21 12.34 -21 11.68 -21 11 C-22.32 10.34 -23.64 9.68 -25 9 C-18.30931522 2.75536087 -9.07213663 -0.2592039 0 0 Z " fill="#4AB0DC" transform="translate(133,69)"/>
<path d="M0 0 C3.30248994 0.0660498 5.96658888 0.22644546 8.67773438 2.25585938 C12.74954749 6.61667317 13.65763135 9.79652374 13.52734375 15.72460938 C13.47707031 16.61986328 13.42679688 17.51511719 13.375 18.4375 C13.34792969 19.35982422 13.32085937 20.28214844 13.29296875 21.23242188 C13.22276119 23.4907652 13.12452894 25.74411037 13 28 C11.02 28 9.04 28 7 28 C6.92652344 26.33710937 6.92652344 26.33710937 6.8515625 24.640625 C6.77650785 23.17705935 6.70096119 21.71351888 6.625 20.25 C6.5940625 19.52039063 6.563125 18.79078125 6.53125 18.0390625 C6.27401185 12.7013827 6.27401185 12.7013827 4 8 C3.01 7.34 2.02 6.68 1 6 C3.97 6.495 3.97 6.495 7 7 C7 5.68 7 4.36 7 3 C4.69 2.67 2.38 2.34 0 2 C0 1.34 0 0.68 0 0 Z " fill="#4AB3DB" transform="translate(120,31)"/>
<path d="M0 0 C15.84 0 31.68 0 48 0 C48 1.98 48 3.96 48 6 C39.60995285 6.13605482 31.35619957 5.75475351 23 5 C23.66 4.01 24.32 3.02 25 2 C16.75 1.67 8.5 1.34 0 1 C0 0.67 0 0.34 0 0 Z " fill="#4583BE" transform="translate(36,102)"/>
<path d="M0 0 C0.66 0.33 1.32 0.66 2 1 C1.34 2.65 0.68 4.3 0 6 C0.99 6 1.98 6 3 6 C3 5.01 3 4.02 3 3 C4.65 3.33 6.3 3.66 8 4 C6.78437378 4.85694458 6.78437378 4.85694458 5.54418945 5.73120117 C1.37275518 9.94162511 2.27406709 15.74763785 2.29296875 21.30078125 C2.27784744 22.49229294 2.26272614 23.68380463 2.24714661 24.91142273 C2.20420579 28.71197338 2.19542477 32.51173073 2.1875 36.3125 C2.16436089 38.89129723 2.13899679 41.47007552 2.11132812 44.04882812 C2.0484123 50.36589289 2.01352896 56.68264684 2 63 C1.67 63 1.34 63 1 63 C0.67 46.5 0.34 30 0 13 C-1.32 12.34 -2.64 11.68 -4 11 C-3.48964169 6.6109185 -2.47785723 3.66291938 0 0 Z " fill="#7481B0" transform="translate(27,33)"/>
<path d="M0 0 C0.33 0 0.66 0 1 0 C1.33 3.63 1.66 7.26 2 11 C2.763125 10.484375 3.52625 9.96875 4.3125 9.4375 C5.199375 8.963125 6.08625 8.48875 7 8 C7.99 8.33 8.98 8.66 10 9 C9.67 9.66 9.34 10.32 9 11 C9.66 11.33 10.32 11.66 11 12 C11 11.34 11 10.68 11 10 C14.52948291 8.33329974 16.28272326 7.86416544 20 9 C16.54565686 11.00695291 13.0858937 13.00436779 9.625 15 C8.64015625 15.57234375 7.6553125 16.1446875 6.640625 16.734375 C5.69960937 17.27578125 4.75859375 17.8171875 3.7890625 18.375 C2.48509521 19.12910156 2.48509521 19.12910156 1.15478516 19.8984375 C-1 21 -1 21 -3 21 C-3 20.34 -3 19.68 -3 19 C-2.01 19 -1.02 19 0 19 C0 18.01 0 17.02 0 16 C0.66 16 1.32 16 2 16 C2 15.01 2 14.02 2 13 C1.34 13 0.68 13 0 13 C0 8.71 0 4.42 0 0 Z " fill="#4B8FC4" transform="translate(72,63)"/>
<path d="M0 0 C4.58254057 -0.13584606 8.24138587 0.69634737 12.5390625 2.12890625 C12.5390625 3.44890625 12.5390625 4.76890625 12.5390625 6.12890625 C11.2190625 5.79890625 9.8990625 5.46890625 8.5390625 5.12890625 C8.5390625 4.46890625 8.5390625 3.80890625 8.5390625 3.12890625 C-0.0409375 3.12890625 -8.6209375 3.12890625 -17.4609375 3.12890625 C-17.1309375 2.46890625 -16.8009375 1.80890625 -16.4609375 1.12890625 C-11.01482702 0.34561221 -5.49102105 0.28762491 0 0 Z " fill="#0B93D7" transform="translate(114.4609375,31.87109375)"/>
<path d="M0 0 C0.66 0.66 1.32 1.32 2 2 C1.69140625 3.828125 1.69140625 3.828125 1 6 C0.64110788 7.58226891 0.28699368 9.16562863 -0.0625 10.75 C-0.23910156 11.54921875 -0.41570312 12.3484375 -0.59765625 13.171875 C-0.73042969 13.77515625 -0.86320312 14.3784375 -1 15 C-0.01 15 0.98 15 2 15 C1.97679688 14.40832031 1.95359375 13.81664063 1.9296875 13.20703125 C1.82588536 8.66198041 1.86291643 5.14059941 4 1 C4.99 1 5.98 1 7 1 C6.01 5.95 5.02 10.9 4 16 C1.69 16 -0.62 16 -3 16 C-2.57910004 10.39538469 -2.08386889 5.27913453 0 0 Z " fill="#4C9FCE" transform="translate(97,92)"/>
<path d="M0 0 C1 3 1 3 0 7 C-3.96 7 -7.92 7 -12 7 C-10.68 6.67 -9.36 6.34 -8 6 C-8 5.34 -8 4.68 -8 4 C-6.68 4 -5.36 4 -4 4 C-4 3.34 -4 2.68 -4 2 C-5.85625 2.5259375 -5.85625 2.5259375 -7.75 3.0625 C-10.903292 3.95593273 -12.86774164 4.00881294 -16 3 C-14.27318563 2.49193553 -12.54342021 1.99389533 -10.8125 1.5 C-9.84957031 1.2215625 -8.88664062 0.943125 -7.89453125 0.65625 C-5.14654124 0.03322392 -2.80401584 -0.12302812 0 0 Z " fill="#47B7E2" transform="translate(133,69)"/>
<path d="M0 0 C1.9375 0.375 1.9375 0.375 4 1 C5.59412284 4.18824568 5.10174735 7.62896662 5.0625 11.125 C5.05798828 11.87910156 5.05347656 12.63320313 5.04882812 13.41015625 C5.03703499 15.27347127 5.01909942 17.13674555 5 19 C4.01 19 3.02 19 2 19 C1.93941406 17.87980469 1.87882813 16.75960937 1.81640625 15.60546875 C1.73198576 14.13280016 1.64733851 12.66014456 1.5625 11.1875 C1.52318359 10.44951172 1.48386719 9.71152344 1.44335938 8.95117188 C1.25618965 5.76928658 1.01279207 3.03837622 0 0 Z " fill="#07A8E8" transform="translate(127,38)"/>
<path d="M0 0 C0.433125 0.61875 0.86625 1.2375 1.3125 1.875 C2.99740483 4.2197245 2.99740483 4.2197245 6 6 C5.34 6 4.68 6 4 6 C4 7.65 4 9.3 4 11 C4.66 11.33 5.32 11.66 6 12 C0.64951939 11.62671065 -1.50912907 10.0042343 -5 6 C-4.67 5.34 -4.34 4.68 -4 4 C-3.01 4 -2.02 4 -1 4 C-0.67 2.68 -0.34 1.36 0 0 Z " fill="#5A6AA3" transform="translate(29,96)"/>
<path d="M0 0 C3.45925163 1.2491742 6.14693203 2.67527795 9 5 C8.01 5 7.02 5 6 5 C6.33 5.99 6.66 6.98 7 8 C6.01 9.485 6.01 9.485 5 11 C2.11604263 9.55802132 0.23474848 7.29355765 -2 5 C-1.34 5 -0.68 5 0 5 C-0.33 4.01 -0.66 3.02 -1 2 C-0.67 1.34 -0.34 0.68 0 0 Z " fill="#3C87C1" transform="translate(78,60)"/>
<path d="M0 0 C0.33 0 0.66 0 1 0 C1.06058594 0.81984375 1.12117188 1.6396875 1.18359375 2.484375 C1.26738281 3.56203125 1.35117187 4.6396875 1.4375 5.75 C1.55931641 7.35101563 1.55931641 7.35101563 1.68359375 8.984375 C1.94090773 11.43679962 2.31812218 13.63921291 3 16 C3.66 16 4.32 16 5 16 C4.67 17.65 4.34 19.3 4 21 C2.35 20.67 0.7 20.34 -1 20 C-0.67 13.4 -0.34 6.8 0 0 Z " fill="#38448A" transform="translate(24,80)"/>
<path d="M0 0 C0.97582031 0.00902344 1.95164062 0.01804687 2.95703125 0.02734375 C3.69308594 0.03894531 4.42914063 0.05054687 5.1875 0.0625 C2.09101624 3.25887033 -0.12984601 4.3801732 -4.5 4.5 C-6.82421875 4.49609375 -6.82421875 4.49609375 -8.8125 4.0625 C-9.4725 3.0725 -10.1325 2.0825 -10.8125 1.0625 C-7.13862505 0.20951624 -3.7677607 -0.04539471 0 0 Z " fill="#2459A1" transform="translate(58.8125,102.9375)"/>
<path d="M0 0 C0.33 0.66 0.66 1.32 1 2 C1.99 1.67 2.98 1.34 4 1 C4 1.66 4 2.32 4 3 C3.01 3.33 2.02 3.66 1 4 C0.34 8.29 -0.32 12.58 -1 17 C-1.99 17 -2.98 17 -4 17 C-3.85769192 15.58297487 -3.71099254 14.1663904 -3.5625 12.75 C-3.48128906 11.96109375 -3.40007812 11.1721875 -3.31640625 10.359375 C-3.02353704 8.1755108 -2.54210643 6.13198159 -2 4 C-2 3.34 -2 2.68 -2 2 C-1.34 2 -0.68 2 0 2 C0 1.34 0 0.68 0 0 Z " fill="#1387CA" transform="translate(100,90)"/>
<path d="M0 0 C3.3 1.65 6.6 3.3 10 5 C9.01 6.485 9.01 6.485 8 8 C7.34 8 6.68 8 6 8 C6 7.01 6 6.02 6 5 C4.68 5 3.36 5 2 5 C1.67 6.32 1.34 7.64 1 9 C0.67 9 0.34 9 0 9 C0 6.03 0 3.06 0 0 Z " fill="#3C7DB6" transform="translate(68,54)"/>
<path d="M0 0 C3.47249903 0.06944998 6.07310974 0.25059936 8.8359375 2.484375 C11.8915981 5.84129791 11.8915981 5.84129791 13 8 C12.65625 10.23046875 12.65625 10.23046875 12 12 C11.5978125 11.0409375 11.5978125 11.0409375 11.1875 10.0625 C10.11332248 7.66868314 10.11332248 7.66868314 7 7 C7 5.68 7 4.36 7 3 C4.69 2.67 2.38 2.34 0 2 C0 1.34 0 0.68 0 0 Z " fill="#54B7DF" transform="translate(120,31)"/>
<path d="M0 0 C0 0.66 0 1.32 0 2 C-1.32 2 -2.64 2 -4 2 C-4 2.66 -4 3.32 -4 4 C-7.37097383 5.49821059 -9.20442119 6 -13 6 C-12.67 4.68 -12.34 3.36 -12 2 C-7.8803623 0.70756464 -4.33168317 -0.26252625 0 0 Z " fill="#09A1DF" transform="translate(129,71)"/>
<path d="M0 0 C1.32 0.33 2.64 0.66 4 1 C4 1.66 4 2.32 4 3 C3.01 3 2.02 3 1 3 C1 3.99 1 4.98 1 6 C0.34 6 -0.32 6 -1 6 C-1.12375 6.94875 -1.2475 7.8975 -1.375 8.875 C-2 12 -2 12 -4 14 C-4.33 12.02 -4.66 10.04 -5 8 C-4.34 8 -3.68 8 -3 8 C-2.67 7.34 -2.34 6.68 -2 6 C-2.66 5.67 -3.32 5.34 -4 5 C-3.01 5 -2.02 5 -1 5 C-0.67 3.35 -0.34 1.7 0 0 Z " fill="#2399D5" transform="translate(108,79)"/>
<path d="M0 0 C1.98 0 3.96 0 6 0 C6 1.98 6 3.96 6 6 C4.02 6 2.04 6 0 6 C0 4.02 0 2.04 0 0 Z " fill="#3EAFDE" transform="translate(127,102)"/>
<path d="M0 0 C0.66 0.66 1.32 1.32 2 2 C1.69140625 3.828125 1.69140625 3.828125 1 6 C0.64110788 7.58226891 0.28699368 9.16562863 -0.0625 10.75 C-0.23910156 11.54921875 -0.41570312 12.3484375 -0.59765625 13.171875 C-0.73042969 13.77515625 -0.86320312 14.3784375 -1 15 C0.32 15.33 1.64 15.66 3 16 C1.02 16 -0.96 16 -3 16 C-2.57910004 10.39538469 -2.08386889 5.27913453 0 0 Z " fill="#56A1CA" transform="translate(97,92)"/>
<path d="M0 0 C1.32 0 2.64 0 4 0 C4 0.99 4 1.98 4 3 C5.32 2.34 6.64 1.68 8 1 C8 2.65 8 4.3 8 6 C4.7 5.67 1.4 5.34 -2 5 C-1.34 3.35 -0.68 1.7 0 0 Z " fill="#2070B4" transform="translate(70,59)"/>
<path d="M0 0 C0 1.32 0 2.64 0 4 C-3.63 4 -7.26 4 -11 4 C-10 2 -10 2 -7.1875 0.875 C-4 0 -4 0 0 0 Z " fill="#0EA2DD" transform="translate(132,87)"/>
<path d="M0 0 C0.66 0.33 1.32 0.66 2 1 C1.54917531 2.46067199 1.08906463 3.91848032 0.625 5.375 C0.36976562 6.18710937 0.11453125 6.99921875 -0.1484375 7.8359375 C-1 10 -1 10 -3 12 C-3.94721072 9.39517051 -4.30222393 7.69325299 -3.17578125 5.109375 C-2.17063275 3.37417127 -1.0893855 1.68359577 0 0 Z " fill="#616AA0" transform="translate(27,33)"/>
<path d="M0 0 C3.465 1.485 3.465 1.485 7 3 C6.01 3.33 5.02 3.66 4 4 C4.33 4.99 4.66 5.98 5 7 C4.01 8.485 4.01 8.485 3 10 C2.34 9.67 1.68 9.34 1 9 C1.20625 8.2575 1.4125 7.515 1.625 6.75 C2.04408751 3.67669159 1.61949011 2.57213134 0 0 Z " fill="#5697C7" transform="translate(80,61)"/>
<path d="M0 0 C2.475 0.495 2.475 0.495 5 1 C5 1.99 5 2.98 5 4 C4.34 4 3.68 4 3 4 C3 4.99 3 5.98 3 7 C2.01 7 1.02 7 0 7 C0 4.69 0 2.38 0 0 Z " fill="#196BB5" transform="translate(69,75)"/>
<path d="M0 0 C0.66 0.33 1.32 0.66 2 1 C1.67 2.32 1.34 3.64 1 5 C0.34 5 -0.32 5 -1 5 C-1 6.65 -1 8.3 -1 10 C-1.66 10 -2.32 10 -3 10 C-3.36923077 4.58461538 -3.36923077 4.58461538 -1.5 1.625 C-1.005 1.08875 -0.51 0.5525 0 0 Z " fill="#099ADC" transform="translate(116,97)"/>
<path d="M0 0 C2.97 0.33 5.94 0.66 9 1 C9 2.32 9 3.64 9 5 C7.68 4.67 6.36 4.34 5 4 C5 3.34 5 2.68 5 2 C3.35 2 1.7 2 0 2 C0 1.34 0 0.68 0 0 Z " fill="#04A3E3" transform="translate(118,33)"/>
<path d="M0 0 C1.9375 0.625 1.9375 0.625 4 2 C4.75 5.125 4.75 5.125 5 8 C4.566875 7.360625 4.13375 6.72125 3.6875 6.0625 C2.08760823 3.73253997 2.08760823 3.73253997 -1 3 C-0.67 2.01 -0.34 1.02 0 0 Z " fill="#4EBDE7" transform="translate(128,35)"/>
<path d="M0 0 C0.99 0 1.98 0 3 0 C2.34 2.64 1.68 5.28 1 8 C-1 5 -1 5 -0.625 2.3125 C-0.41875 1.549375 -0.2125 0.78625 0 0 Z " fill="#52ADDD" transform="translate(101,93)"/>
<path d="M0 0 C1.98 0 3.96 0 6 0 C0.85714286 4.42857143 0.85714286 4.42857143 -3 5 C-3 4.34 -3 3.68 -3 3 C-2.01 3 -1.02 3 0 3 C0 2.01 0 1.02 0 0 Z " fill="#578FBF" transform="translate(72,79)"/>
<path d="M0 0 C2.97 0.495 2.97 0.495 6 1 C2.93882432 3.62386487 2.26826873 4 -2 4 C-1.34 2.68 -0.68 1.36 0 0 Z " fill="#37B1E2" transform="translate(120,89)"/>
</svg>
